REM DIRINDEX 1\2,1\3
REM DIRNAME folder01,folder02,folder03
TITLE ""
FILE "CD2Track01.mp3" MP3
  TRACK 01 AUDIO
    TITLE "0:"
    INDEX 01 00:00:00
  TRACK 02 AUDIO
    TITLE "2:cjc102_2246"
    INDEX 01 00:00:21
  TRACK 03 AUDIO
    TITLE "0:"
    INDEX 01 00:01:22
  TRACK 04 AUDIO
    TITLE "3:cjc102_2247"
    INDEX 01 00:01:30
  TRACK 05 AUDIO
    TITLE "0:"
    INDEX 01 00:02:69
  TRACK 06 AUDIO
    TITLE "3:cjc102_2248"
    INDEX 01 00:03:39
  TRACK 07 AUDIO
    TITLE "0:"
    INDEX 01 00:07:07
  TRACK 08 AUDIO
    TITLE "2:cjc102_2249"
    INDEX 01 00:07:11
  TRACK 09 AUDIO
    TITLE "0:"
    INDEX 01 00:08:07
  TRACK 10 AUDIO
    TITLE "3:cjc102_2250"
    INDEX 01 00:08:56
  TRACK 11 AUDIO
    TITLE "0:"
    INDEX 01 00:09:36
  TRACK 12 AUDIO
    TITLE "2:cjc102_2251"
    INDEX 01 00:09:38
  TRACK 13 AUDIO
    TITLE "0:"
    INDEX 01 00:10:49
  TRACK 14 AUDIO
    TITLE "3:cjc102_2252"
    INDEX 01 00:11:44
  TRACK 15 AUDIO
    TITLE "0:"
    INDEX 01 00:12:30
  TRACK 16 AUDIO
    TITLE "2:cjc102_2253"
    INDEX 01 00:12:56
  TRACK 17 AUDIO
    TITLE "0:"
    INDEX 01 00:14:07
  TRACK 18 AUDIO
    TITLE "3:cjc102_2254"
    INDEX 01 00:14:51
  TRACK 19 AUDIO
    TITLE "0:"
    INDEX 01 00:15:50
  TRACK 20 AUDIO
    TITLE "2:cjc102_2255"
    INDEX 01 00:15:66
  TRACK 21 AUDIO
    TITLE "0:"
    INDEX 01 00:17:08
  TRACK 22 AUDIO
    TITLE "3:cjc102_2256"
    INDEX 01 00:17:69
  TRACK 23 AUDIO
    TITLE "0:"
    INDEX 01 00:18:64
  TRACK 24 AUDIO
    TITLE "2:cjc102_2257"
    INDEX 01 00:18:74
  TRACK 25 AUDIO
    TITLE "0:"
    INDEX 01 00:20:14
  TRACK 26 AUDIO
    TITLE "3:cjc102_2258"
    INDEX 01 00:21:47
  TRACK 27 AUDIO
    TITLE "0:"
    INDEX 01 00:22:25
  TRACK 28 AUDIO
    TITLE "2:cjc102_2259"
    INDEX 01 00:22:74
  TRACK 29 AUDIO
    TITLE "0:"
    INDEX 01 00:24:14
  TRACK 30 AUDIO
    TITLE "3:cjc102_2260"
    INDEX 01 00:24:63
  TRACK 31 AUDIO
    TITLE "0:"
    INDEX 01 00:25:60
  TRACK 32 AUDIO
    TITLE "2:cjc102_2261"
    INDEX 01 00:26:15
  TRACK 33 AUDIO
    TITLE "0:"
    INDEX 01 00:27:34
  TRACK 34 AUDIO
    TITLE "3:cjc102_2262"
    INDEX 01 00:28:00
  TRACK 35 AUDIO
    TITLE "0:"
    INDEX 01 00:28:68
  TRACK 36 AUDIO
    TITLE "2:cjc102_2263"
    INDEX 01 00:28:70
  TRACK 37 AUDIO
    TITLE "0:"
    INDEX 01 00:30:06
  TRACK 38 AUDIO
    TITLE "3:cjc102_2264"
    INDEX 01 00:30:59
  TRACK 39 AUDIO
    TITLE "0:"
    INDEX 01 00:31:55
  TRACK 40 AUDIO
    TITLE "2:cjc102_2265"
    INDEX 01 00:31:59
  TRACK 41 AUDIO
    TITLE "0:"
    INDEX 01 00:32:74
  TRACK 42 AUDIO
    TITLE "3:cjc102_2266"
    INDEX 01 00:33:71
  TRACK 43 AUDIO
    TITLE "0:"
    INDEX 01 00:34:51
  TRACK 44 AUDIO
    TITLE "2:cjc102_2267"
    INDEX 01 00:34:55
  TRACK 45 AUDIO
    TITLE "0:"
    INDEX 01 00:35:57
  TRACK 46 AUDIO
    TITLE "3:cjc102_2268"
    INDEX 01 00:36:68
  TRACK 47 AUDIO
    TITLE "0:"
    INDEX 01 00:37:61
  TRACK 48 AUDIO
    TITLE "2:cjc102_2269"
    INDEX 01 00:38:06
  TRACK 49 AUDIO
    TITLE "0:"
    INDEX 01 00:39:15
  TRACK 50 AUDIO
    TITLE "3:cjc102_2270"
    INDEX 01 00:40:24
  TRACK 51 AUDIO
    TITLE "0:"
    INDEX 01 00:41:32
  TRACK 52 AUDIO
    TITLE "2:cjc102_2271"
    INDEX 01 00:41:40
  TRACK 53 AUDIO
    TITLE "0:"
    INDEX 01 00:42:41
  TRACK 54 AUDIO
    TITLE "3:cjc102_2272"
    INDEX 01 00:43:37
  TRACK 55 AUDIO
    TITLE "0:"
    INDEX 01 00:44:46
  TRACK 56 AUDIO
    TITLE "2:cjc102_2273"
    INDEX 01 00:44:67
  TRACK 57 AUDIO
    TITLE "0:"
    INDEX 01 00:46:13
  TRACK 58 AUDIO
    TITLE "3:cjc102_2274"
    INDEX 01 00:46:74
  TRACK 59 AUDIO
    TITLE "0:"
    INDEX 01 00:48:06
  TRACK 60 AUDIO
    TITLE "2:cjc102_2275"
    INDEX 01 00:48:12
  TRACK 61 AUDIO
    TITLE "0:"
    INDEX 01 00:49:14
  TRACK 62 AUDIO
    TITLE "3:cjc102_2276"
    INDEX 01 00:50:11
  TRACK 63 AUDIO
    TITLE "0:"
    INDEX 01 00:51:01
  TRACK 64 AUDIO
    TITLE "2:cjc102_2277"
    INDEX 01 00:51:03
  TRACK 65 AUDIO
    TITLE "0:"
    INDEX 01 00:52:14
  TRACK 66 AUDIO
    TITLE "3:cjc102_2278"
    INDEX 01 00:53:25
  TRACK 67 AUDIO
    TITLE "0:"
    INDEX 01 00:54:32
  TRACK 68 AUDIO
    TITLE "2:cjc102_2279"
    INDEX 01 00:54:56
  TRACK 69 AUDIO
    TITLE "0:"
    INDEX 01 00:56:04
  TRACK 70 AUDIO
    TITLE "3:cjc102_2280"
    INDEX 01 00:56:35
  TRACK 71 AUDIO
    TITLE "0:"
    INDEX 01 00:57:46
  TRACK 72 AUDIO
    TITLE "2:cjc102_2281"
    INDEX 01 00:57:58
  TRACK 73 AUDIO
    TITLE "0:"
    INDEX 01 00:59:20
  TRACK 74 AUDIO
    TITLE "3:cjc102_2282"
    INDEX 01 01:00:12
  TRACK 75 AUDIO
    TITLE "0:"
    INDEX 01 01:01:33
  TRACK 76 AUDIO
    TITLE "2:cjc102_2283"
    INDEX 01 01:01:40
  TRACK 77 AUDIO
    TITLE "0:"
    INDEX 01 01:02:50
  TRACK 78 AUDIO
    TITLE "2:cjc102_2284"
    INDEX 01 01:03:33
  TRACK 79 AUDIO
    TITLE "0:"
    INDEX 01 01:04:52
  TRACK 80 AUDIO
    TITLE "3:cjc102_2285"
    INDEX 01 01:05:01
  TRACK 81 AUDIO
    TITLE "0:"
    INDEX 01 01:06:24
  TRACK 82 AUDIO
    TITLE "2:cjc102_2286"
    INDEX 01 01:06:32
  TRACK 83 AUDIO
    TITLE "0:"
    INDEX 01 01:07:41
  TRACK 84 AUDIO
    TITLE "2:cjc102_2287"
    INDEX 01 01:08:07
  TRACK 85 AUDIO
    TITLE "0:"
    INDEX 01 01:09:32
  TRACK 86 AUDIO
    TITLE "3:cjc102_2288"
    INDEX 01 01:10:12
  TRACK 87 AUDIO
    TITLE "0:"
    INDEX 01 01:11:33
  TRACK 88 AUDIO
    TITLE "2:cjc102_2289"
    INDEX 01 01:11:72
  TRACK 89 AUDIO
    TITLE "0:"
    INDEX 01 01:14:49
  TRACK 90 AUDIO
    TITLE "3:cjc102_2290"
    INDEX 01 01:15:60
  TRACK 91 AUDIO
    TITLE "0:"
    INDEX 01 01:16:73
  TRACK 92 AUDIO
    TITLE "2:cjc102_2291"
    INDEX 01 01:17:49
  TRACK 93 AUDIO
    TITLE "0:"
    INDEX 01 01:20:55
